<?xml version="1.0" encoding="utf-8"?>
<!-- Generator: Adobe Illustrator 21.0.0, SVG Export Plug-In . SVG Version: 6.00 Build 0)  -->
<svg version="1.1" id="Layer_1" xmlns="http://www.w3.org/2000/svg" xmlns:xlink="http://www.w3.org/1999/xlink" x="0px" y="0px"
	 width="1000px" height="1000px" viewBox="0 0 1000 1000" style="enable-background:new 0 0 1000 1000;" xml:space="preserve">
<style type="text/css">
	.st0{fill:#FFFFFF;}
</style>
<path class="st0" d="M567,472.5c2.9,5.7,8.7,9,14.7,9c2.5,0,5.1-0.6,7.4-1.8c1-0.5,97.6-49.6,145.2-64.6c8.6-2.7,13.4-12,10.7-20.6
	s-11.9-13.5-20.6-10.7c-50.2,15.9-146.2,64.6-150.2,66.7C566.2,454.5,562.9,464.4,567,472.5L567,472.5z"/>
<path class="st0" d="M581.7,284.5c2.5,0,5.1-0.6,7.4-1.8c1-0.5,97.6-49.6,145.2-64.6c8.6-2.7,13.4-12,10.7-20.6
	s-11.9-13.4-20.6-10.7c-50.2,15.9-146.2,64.6-150.2,66.7c-8.1,4.1-11.3,14-7.2,22.1C569.9,281.2,575.7,284.5,581.7,284.5
	L581.7,284.5z"/>
<path class="st0" d="M975.6,251.7c-9.1,0-16.4,7.4-16.4,16.4v640.2c0,27.2-22.1,49.2-49.2,49.2H516v-37.8
	c23.9-8.4,86.3-27.9,147.7-27.9c143,0,240.1,31.7,241.1,32c4.9,1.6,10.5,0.8,14.8-2.3s6.8-8,6.8-13.3V186c0-7.7-5.3-14.4-12.8-16
	c0,0-12.9-2.9-34.9-6.9c-8.9-1.6-17.5,4.3-19.1,13.2s4.3,17.5,13.2,19.1c8.4,1.5,15.4,2.9,20.8,4v687.1
	c-37.2-9.8-119.8-27.4-229.8-27.4c-71.5,0-141.8,23.5-163.5,31.5c-19.3-8.5-77.7-31.5-148.4-31.5c-113.1,0-206.2,18.7-246.2,28.1
	V198.7c32.8-8.1,129.6-29.1,246.2-29.1c59.9,0,111.2,18.6,131.3,27.1v646c0,5.9,3.2,11.4,8.3,14.3c5.1,2.9,11.5,2.8,16.5-0.2
	c1.6-1,164.3-98.1,308.6-146.2c6.7-2.3,11.2-8.5,11.2-15.6V22c0-5.4-2.6-10.4-7.1-13.5c-4.4-3.1-10.1-3.8-15.1-1.9
	C674.3,55.9,541.4,138.6,540,139.4c-7.7,4.8-10,14.9-5.2,22.6c4.8,7.7,14.9,10,22.6,5.2c1.2-0.8,116.8-72.7,237.5-121.2v637.3
	C683,722.1,566,785.6,516,814.1V186c0-6.2-3.5-11.9-9.1-14.7c-2.8-1.4-70.1-34.6-155.1-34.6c-148.3,0-262.4,32.1-267.2,33.5
	c-7,2-11.9,8.5-11.9,15.8v722.3c0,5.1,2.4,10,6.5,13.1c2.9,2.2,6.4,3.3,9.9,3.3c1.5,0,3-0.2,4.5-0.6c1.1-0.3,114.6-32.2,258.1-32.2
	c60,0,111.3,18.7,131.3,27.1v38.6H89c-27.2,0-49.2-22.1-49.2-49.2V268.1c0-9.1-7.4-16.4-16.4-16.4c-9.1,0-16.4,7.4-16.4,16.4v640.2
	c0,45.3,36.8,82.1,82.1,82.1H910c45.3,0,82.1-36.8,82.1-82.1V268.1C992.1,259,984.7,251.7,975.6,251.7L975.6,251.7z"/>
<path class="st0" d="M567,374c2.9,5.7,8.7,9,14.7,9c2.5,0,5.1-0.6,7.4-1.8c1-0.5,97.6-49.6,145.2-64.6c8.6-2.7,13.4-12,10.7-20.6
	s-11.9-13.4-20.6-10.7c-50.2,15.9-146.2,64.6-150.2,66.7C566.2,356.1,562.9,365.9,567,374L567,374z"/>
<path class="st0" d="M567,571c2.9,5.7,8.7,9,14.7,9c2.5,0,5.1-0.6,7.4-1.8c1-0.5,97.6-49.6,145.2-64.6c8.6-2.7,13.4-12,10.7-20.6
	s-11.9-13.5-20.6-10.7c-50.2,15.9-146.2,64.6-150.2,66.7C566.2,553,562.9,562.9,567,571L567,571z"/>
<path class="st0" d="M404.9,310.1c-101.4-23.8-216.5,6.5-221.4,7.8c-8.7,2.3-13.9,11.3-11.6,20.1c2,7.3,8.6,12.2,15.8,12.2
	c1.4,0,2.8-0.2,4.3-0.6c1.1-0.3,112-29.5,205.4-7.6c8.8,2,17.7-3.4,19.7-12.2C419.2,321,413.7,312.2,404.9,310.1L404.9,310.1z"/>
<path class="st0" d="M404.9,408.6c-101.4-23.8-216.5,6.5-221.4,7.8c-8.7,2.3-13.9,11.3-11.6,20.1c2,7.3,8.6,12.2,15.8,12.2
	c1.4,0,2.8-0.2,4.3-0.6c1.1-0.3,112-29.5,205.4-7.6c8.8,2,17.7-3.4,19.7-12.2C419.2,419.5,413.7,410.6,404.9,408.6L404.9,408.6z"/>
<path class="st0" d="M567,669.5c2.9,5.7,8.7,9,14.7,9c2.5,0,5.1-0.6,7.4-1.8c1-0.5,97.6-49.6,145.2-64.6c8.6-2.7,13.4-12,10.7-20.6
	s-11.9-13.4-20.6-10.7c-50.2,15.9-146.2,64.6-150.2,66.7C566.2,651.5,562.9,661.4,567,669.5L567,669.5z"/>
<path class="st0" d="M404.9,507.1c-101.4-23.8-216.5,6.5-221.4,7.8c-8.7,2.3-13.9,11.3-11.6,20.1c2,7.3,8.6,12.2,15.8,12.2
	c1.4,0,2.8-0.2,4.3-0.6c1.1-0.3,112-29.5,205.4-7.6c8.8,2.1,17.7-3.4,19.7-12.2C419.2,518,413.7,509.1,404.9,507.1L404.9,507.1z"/>
<path class="st0" d="M404.9,704c-101.4-23.8-216.5,6.5-221.4,7.8c-8.7,2.3-13.9,11.3-11.6,20.1c2,7.3,8.6,12.2,15.8,12.2
	c1.4,0,2.8-0.2,4.3-0.6c1.1-0.3,112-29.5,205.4-7.6c8.8,2,17.7-3.4,19.7-12.2C419.2,714.9,413.7,706.1,404.9,704L404.9,704z"/>
<path class="st0" d="M404.9,605.6c-101.4-23.8-216.5,6.5-221.4,7.8c-8.7,2.3-13.9,11.3-11.6,20.1c2,7.3,8.6,12.2,15.8,12.2
	c1.4,0,2.8-0.2,4.3-0.6c1.1-0.3,112-29.5,205.4-7.6c8.8,2.1,17.7-3.4,19.7-12.2C419.2,616.4,413.7,607.6,404.9,605.6L404.9,605.6z"
	/>
</svg>
