<?xml version="1.0" encoding="utf-8"?>
<!-- Generator: Adobe Illustrator 21.0.0, SVG Export Plug-In . SVG Version: 6.00 Build 0)  -->
<svg version="1.1" id="Layer_1" xmlns="http://www.w3.org/2000/svg" xmlns:xlink="http://www.w3.org/1999/xlink" x="0px" y="0px"
	 width="1000px" height="1000px" viewBox="0 0 1000 1000" style="enable-background:new 0 0 1000 1000;" xml:space="preserve">
<style type="text/css">
	.st0{fill:#FFFFFF;}
</style>
<path class="st0" d="M367.9,616.1c0,9.1,7.4,16.5,16.5,16.5h65.9c9.1,0,16.5-7.4,16.5-16.5v-98.9c0-9.1-7.4-16.5-16.5-16.5h-65.9
	c-9.1,0-16.5,7.4-16.5,16.5V616.1z M400.9,533.7h33v65.9h-33V533.7z"/>
<path class="st0" d="M384.4,434.7h65.9c9.1,0,16.5-7.4,16.5-16.5v-98.9c0-9.1-7.4-16.5-16.5-16.5h-65.9c-9.1,0-16.5,7.4-16.5,16.5
	v98.9C367.9,427.4,375.3,434.7,384.4,434.7L384.4,434.7z M400.9,335.8h33v65.9h-33V335.8z"/>
<path class="st0" d="M261,317l238.8-143.3L738.6,317c2.6,1.6,5.6,2.4,8.5,2.4c5.6,0,11.1-2.8,14.2-8c4.7-7.8,2.2-17.9-5.6-22.6
	L516.3,145.2V39.1h82.4v33h-49.5c-9.1,0-16.5,7.4-16.5,16.5s7.4,16.5,16.5,16.5h65.9c9.1,0,16.5-7.4,16.5-16.5v-66
	c0-9.1-7.4-16.5-16.5-16.5H499.8c-9.1,0-16.5,7.4-16.5,16.5v122.5L244,288.8c-7.8,4.7-10.3,14.8-5.6,22.6
	C243.1,319.2,253.2,321.7,261,317L261,317z"/>
<path class="st0" d="M186.6,632.6c9.1,0,16.5-7.4,16.5-16.5v-98.9c0-9.1-7.4-16.5-16.5-16.5h-65.9c-9.1,0-16.5,7.4-16.5,16.5v33
	c0,9.1,7.4,16.5,16.5,16.5s16.5-7.4,16.5-16.5v-16.5h33v82.4C170.1,625.2,177.5,632.6,186.6,632.6L186.6,632.6z"/>
<path class="st0" d="M302,846.9V368.8c0-9.1-7.4-16.5-16.5-16.5s-16.5,7.4-16.5,16.5v478.1c0,9.1,7.4,16.5,16.5,16.5
	S302,856,302,846.9L302,846.9z"/>
<path class="st0" d="M219.6,929.3H780c9.1,0,16.5-7.4,16.5-16.5s-7.4-16.5-16.5-16.5H631.7V731.5h16.5c9.1,0,16.5-7.4,16.5-16.5
	s-7.4-16.5-16.5-16.5H351.4c-9.1,0-16.5,7.4-16.5,16.5s7.4,16.5,16.5,16.5h16.5v164.8H219.6c-9.1,0-16.5,7.4-16.5,16.5
	C203.1,921.9,210.5,929.3,219.6,929.3L219.6,929.3z M516.3,830.4c9.1,0,16.5-7.4,16.5-16.5s-7.4-16.5-16.5-16.5v-65.9h82.4v164.8
	h-82.4V830.4z M400.9,731.5h82.4v65.9c-9.1,0-16.5,7.4-16.5,16.5s7.4,16.5,16.5,16.5v65.9h-82.4V731.5z"/>
<path class="st0" d="M878.9,715H813c-9.1,0-16.5,7.4-16.5,16.5v98.9c0,9.1,7.4,16.5,16.5,16.5h65.9c9.1,0,16.5-7.4,16.5-16.5v-98.9
	C895.4,722.4,888,715,878.9,715L878.9,715z M862.5,813.9h-33V748h33V813.9z"/>
<path class="st0" d="M878.9,517.2H813c-9.1,0-16.5,7.4-16.5,16.5v98.9c0,9.1,7.4,16.5,16.5,16.5h65.9c9.1,0,16.5-7.4,16.5-16.5
	v-98.9C895.4,524.6,888,517.2,878.9,517.2L878.9,517.2z M862.5,616.1h-33v-65.9h33V616.1z"/>
<path class="st0" d="M846,962.3H153.6c-9.1,0-16.5,7.4-16.5,16.5s7.4,16.5,16.5,16.5H846c9.1,0,16.5-7.4,16.5-16.5
	C862.5,969.6,855.1,962.3,846,962.3L846,962.3z"/>
<path class="st0" d="M977.8,368.8c-9.1,0-16.5,7.4-16.5,16.5v16.5H780c-9.1,0-16.5,7.4-16.5,16.5s7.4,16.5,16.5,16.5h181.3v544
	c0,9.1,7.4,16.5,16.5,16.5s16.5-7.4,16.5-16.5V385.3C994.3,376.2,987,368.8,977.8,368.8L977.8,368.8z"/>
<path class="st0" d="M532.8,616.1c0,9.1,7.4,16.5,16.5,16.5h65.9c9.1,0,16.5-7.4,16.5-16.5v-98.9c0-9.1-7.4-16.5-16.5-16.5h-65.9
	c-9.1,0-16.5,7.4-16.5,16.5V616.1z M565.7,533.7h33v65.9h-33V533.7z"/>
<path class="st0" d="M170.1,813.9c0-2.1-0.9-214.3-82.4-214.3S5.3,811.8,5.3,813.9c0,39.8,28.4,73.1,65.9,80.8v84.1
	c0,9.1,7.4,16.5,16.5,16.5s16.5-7.4,16.5-16.5v-84.1C141.7,887,170.1,853.7,170.1,813.9L170.1,813.9z M87.7,863.4
	c-27.3,0-49.5-22.2-49.5-49.5c0-82.1,22.1-181.3,49.5-181.3s49.5,99.2,49.5,181.3C137.1,841.2,115,863.4,87.7,863.4L87.7,863.4z"/>
<path class="st0" d="M730.6,846.9V352.3c0-9.1-7.4-16.5-16.5-16.5s-16.5,7.4-16.5,16.5v494.5c0,9.1,7.4,16.5,16.5,16.5
	C723.2,863.4,730.6,856,730.6,846.9L730.6,846.9z"/>
<path class="st0" d="M549.3,434.7h65.9c9.1,0,16.5-7.4,16.5-16.5v-98.9c0-9.1-7.4-16.5-16.5-16.5h-65.9c-9.1,0-16.5,7.4-16.5,16.5
	v98.9C532.8,427.4,540.2,434.7,549.3,434.7L549.3,434.7z M565.7,335.8h33v65.9h-33V335.8z"/>
<path class="st0" d="M21.8,583.1c9.1,0,16.5-7.4,16.5-16.5V434.7h181.3c9.1,0,16.5-7.4,16.5-16.5s-7.4-16.5-16.5-16.5H38.2v-16.5
	c0-9.1-7.4-16.5-16.5-16.5s-16.5,7.4-16.5,16.5v181.3C5.3,575.7,12.6,583.1,21.8,583.1L21.8,583.1z"/>
</svg>
